<?xml version="1.0" standalone="no"?>
<!DOCTYPE svg PUBLIC "-//W3C//DTD SVG 20010904//EN"
 "http://www.w3.org/TR/2001/REC-SVG-20010904/DTD/svg10.dtd">
<svg version="1.0" xmlns="http://www.w3.org/2000/svg"
 width="512.000000pt" height="512.000000pt" viewBox="0 0 512.000000 512.000000"
 preserveAspectRatio="xMidYMid meet">
<metadata>
Created by potrace 1.11, written by Peter Selinger 2001-2013
</metadata>
<g transform="translate(0.000000,512.000000) scale(0.100000,-0.100000)"
fill="#000000" stroke="none">
<path d="M460 3616 c0 -3 53 -79 118 -170 64 -91 180 -254 257 -363 195 -274
287 -405 378 -531 l77 -109 0 -417 0 -416 90 0 90 0 0 415 0 416 218 305 c119
168 251 352 292 409 41 58 109 152 150 210 41 58 96 135 123 171 26 37 47 71
47 75 0 5 -42 9 -93 9 l-93 0 -144 -196 c-80 -108 -167 -227 -195 -264 -27
-37 -104 -141 -170 -230 -66 -89 -142 -191 -168 -228 -26 -37 -52 -68 -56 -70
-8 -3 -100 119 -416 548 -71 96 -173 235 -228 308 l-98 132 -90 0 c-49 0 -89
-2 -89 -4z"/>
<path d="M1319 3516 c-136 -48 -198 -204 -133 -334 30 -60 69 -93 137 -116 60
-20 82 -20 146 1 105 33 170 136 158 248 -3 29 -12 67 -21 83 -53 102 -183
155 -287 118z"/>
<path d="M2503 2927 c-2 -4 -13 -5 -23 -2 -10 3 -21 1 -24 -4 -4 -5 -19 -9
-34 -9 -41 1 -155 -57 -200 -102 -22 -21 -42 -37 -45 -34 -6 7 -97 -100 -97
-115 0 -6 -4 -11 -10 -11 -5 0 -10 -6 -10 -13 0 -8 -9 -24 -20 -37 -11 -13
-20 -31 -20 -42 0 -10 -5 -18 -11 -18 -5 0 -7 -4 -4 -10 3 -5 1 -10 -4 -10 -6
0 -10 -3 -9 -7 1 -5 -4 -21 -10 -36 -7 -15 -15 -47 -19 -70 -12 -67 -7 -302 6
-302 1 0 4 -16 7 -35 2 -19 9 -37 14 -38 6 -2 8 -8 4 -13 -3 -5 -1 -9 4 -9 6
0 18 -22 28 -50 10 -27 22 -50 27 -50 4 0 6 -4 2 -9 -3 -5 11 -26 30 -47 19
-20 35 -40 35 -44 0 -10 104 -99 143 -124 16 -9 37 -19 47 -21 11 -2 32 -13
47 -24 15 -11 42 -22 58 -25 17 -2 30 -5 30 -6 0 -3 18 -6 105 -20 62 -10 208
1 235 18 11 8 17 9 44 11 11 0 26 8 34 16 8 8 17 11 21 8 3 -4 6 -1 6 6 0 7 5
9 10 6 6 -3 10 -1 10 5 0 6 5 8 10 5 6 -3 10 -1 10 4 0 6 7 11 15 11 8 0 15 5
15 10 0 6 7 10 15 10 8 0 41 25 72 55 32 30 61 55 65 55 4 0 9 -42 10 -92 l3
-93 64 -3 c35 -2 68 1 72 5 11 11 10 755 -1 783 -3 9 -10 55 -11 73 0 9 -5 17
-10 17 -6 0 -8 4 -5 9 7 11 -53 131 -65 131 -5 0 -12 7 -16 16 -7 18 -28 44
-75 92 -59 58 -75 72 -87 72 -6 0 -11 4 -11 9 0 11 -110 69 -141 75 -13 3 -26
5 -29 6 -3 2 -9 2 -14 1 -5 -1 -16 1 -25 5 -32 15 -260 24 -268 11z m227 -149
c0 -4 7 -5 15 -2 8 4 15 1 15 -5 0 -6 7 -8 15 -5 8 4 15 1 15 -6 0 -6 5 -8 10
-5 6 3 10 1 10 -5 0 -6 4 -9 9 -5 5 3 17 -2 25 -11 9 -8 16 -12 16 -7 0 4 4 3
8 -4 4 -6 24 -25 44 -41 21 -16 54 -49 73 -73 20 -24 45 -54 56 -66 10 -13 16
-23 11 -23 -4 0 -1 -4 6 -9 7 -4 15 -14 16 -22 2 -8 11 -31 20 -51 9 -21 16
-41 15 -45 -1 -5 -1 -10 0 -13 7 -17 4 -220 -2 -220 -5 0 -5 -5 -2 -10 4 -6 1
-17 -5 -25 -7 -8 -9 -15 -5 -15 4 0 0 -11 -9 -25 -9 -13 -16 -31 -16 -39 0 -8
-6 -21 -13 -28 -7 -7 -27 -33 -44 -58 -41 -61 -88 -110 -121 -128 -66 -35
-128 -66 -134 -68 -5 -1 -11 -3 -15 -4 -5 -1 -12 -3 -18 -5 -5 -1 -12 -3 -15
-4 -13 -6 -182 -5 -186 1 -3 4 -11 5 -19 1 -8 -3 -15 0 -15 6 0 6 -3 10 -7 10
-5 -1 -22 3 -39 10 -196 75 -333 282 -330 496 3 142 55 266 150 355 33 30 68
63 78 73 10 9 23 17 28 17 6 0 10 5 10 10 0 6 3 9 8 8 4 -1 17 3 28 10 12 6
24 8 28 5 3 -3 6 -1 6 6 0 7 4 10 9 6 5 -3 12 -1 16 4 3 6 12 8 20 4 8 -3 15
-1 15 4 0 5 50 9 110 9 61 0 110 -4 110 -8z"/>
<path d="M3480 2885 c4 -12 17 -37 29 -55 11 -19 18 -37 15 -42 -3 -4 0 -8 7
-8 7 0 10 -3 6 -6 -3 -4 0 -19 8 -34 8 -15 11 -30 8 -34 -4 -3 -1 -6 6 -6 7 0
9 -4 6 -10 -3 -5 -2 -10 4 -10 5 0 9 -8 8 -18 -1 -19 78 -223 100 -258 7 -11
10 -24 6 -27 -3 -4 -1 -7 6 -7 7 0 9 -4 6 -10 -3 -5 -1 -10 5 -10 6 0 9 -4 6
-8 -3 -5 1 -20 9 -35 7 -14 11 -28 7 -31 -3 -3 0 -6 7 -6 7 0 10 -4 7 -9 -6
-9 42 -134 69 -182 8 -14 12 -29 8 -33 -3 -3 0 -6 7 -6 7 0 10 -3 7 -7 -4 -3
-2 -12 4 -20 6 -7 8 -13 3 -13 -5 0 -3 -4 4 -9 7 -4 14 -18 15 -29 1 -12 5
-22 10 -22 4 0 5 -4 2 -10 -3 -5 -2 -10 4 -10 5 0 9 -8 8 -18 -1 -17 71 -211
83 -222 12 -11 10 -41 -4 -63 -9 -12 -17 -32 -19 -42 -2 -11 -14 -42 -26 -69
-12 -27 -26 -70 -32 -95 -6 -25 -21 -64 -33 -86 -13 -22 -21 -46 -19 -52 3 -7
0 -13 -7 -13 -6 0 -8 -4 -5 -10 3 -5 1 -10 -5 -10 -6 0 -8 -4 -5 -10 3 -5 2
-10 -2 -10 -5 0 -14 -14 -20 -30 l-12 -31 92 3 c51 2 90 7 89 12 -2 5 0 12 5
15 10 7 43 79 48 106 2 11 4 22 5 25 1 3 2 8 1 13 0 4 4 7 10 7 5 0 7 4 4 10
-3 5 -1 10 6 10 7 0 9 3 6 6 -4 4 0 19 7 33 15 27 23 50 24 65 0 5 5 12 10 15
12 7 70 143 76 178 3 14 9 30 14 36 4 7 14 31 22 55 7 23 17 42 22 42 5 0 7 4
4 9 -4 5 -2 11 2 13 12 4 82 175 75 182 -4 3 -1 6 6 6 6 0 11 6 9 13 -3 14 22
79 34 88 5 3 10 16 11 27 1 12 5 22 10 22 4 0 5 5 2 10 -3 6 -1 10 5 10 6 0 9
4 6 9 -4 5 -3 11 2 13 7 3 71 147 77 173 1 6 7 21 12 35 6 14 9 28 6 33 -2 4
1 7 7 7 6 0 8 5 5 10 -3 6 -1 10 5 10 6 0 8 5 5 10 -3 6 -1 10 5 10 6 0 9 4 6
9 -4 5 -2 11 3 13 5 1 11 12 13 23 1 11 6 22 9 25 9 8 82 190 82 206 0 8 5 14
10 14 6 0 7 3 4 6 -3 4 -1 16 5 28 7 11 11 24 10 29 -1 4 2 7 6 7 5 0 9 6 10
13 0 6 4 22 7 35 7 21 5 22 -66 22 -41 0 -79 -4 -85 -8 -12 -7 -60 -132 -56
-144 1 -5 -3 -8 -9 -8 -5 0 -7 -4 -4 -10 3 -5 1 -10 -6 -10 -7 0 -9 -3 -6 -7
4 -3 -3 -21 -14 -40 -11 -18 -17 -33 -12 -33 4 0 3 -4 -3 -8 -10 -7 -73 -151
-79 -182 -2 -8 -4 -17 -5 -20 -1 -3 -2 -8 -1 -12 0 -5 -4 -8 -9 -8 -5 0 -9 -3
-8 -7 1 -5 -3 -18 -10 -29 -6 -12 -8 -24 -5 -28 3 -3 1 -6 -6 -6 -7 0 -9 -4
-6 -10 3 -5 1 -10 -5 -10 -6 0 -9 -4 -6 -9 4 -5 3 -11 -2 -13 -11 -4 -82 -179
-82 -200 0 -10 -4 -18 -10 -18 -5 0 -9 -3 -9 -7 4 -22 -3 -43 -17 -57 -8 -9
-13 -16 -9 -16 3 0 0 -10 -7 -22 -7 -13 -11 -26 -10 -30 1 -5 -3 -8 -9 -8 -5
0 -7 -4 -4 -10 3 -5 1 -10 -5 -10 -6 0 -9 -3 -6 -8 2 -4 -1 -15 -8 -24 -12
-16 -14 -16 -29 3 -9 10 -14 19 -12 19 3 0 -1 10 -10 23 -8 13 -12 27 -8 30 3
4 1 7 -5 7 -7 0 -11 3 -11 8 1 4 0 9 -1 12 -1 3 -3 13 -5 23 -5 26 -76 199
-91 223 -8 11 -11 24 -7 27 3 4 1 7 -6 7 -7 0 -10 4 -7 8 3 5 -3 25 -14 44
-10 20 -16 39 -13 42 4 3 1 6 -6 6 -7 0 -10 4 -7 9 6 10 -54 164 -66 169 -5 2
-6 8 -2 13 3 5 0 9 -7 9 -7 0 -10 3 -6 6 3 4 0 19 -8 34 -8 15 -11 30 -8 34 4
3 1 6 -6 6 -7 0 -9 5 -6 10 3 6 1 10 -5 10 -6 0 -8 5 -5 10 3 6 1 10 -4 10 -6
0 -10 3 -10 8 4 18 -15 72 -24 72 -6 0 -8 3 -4 6 8 9 -29 105 -45 116 -7 4
-50 8 -95 7 -80 -2 -81 -2 -73 -24z"/>
</g>
</svg>
